<?xml version="1.0" encoding="UTF-8" standalone="no"?>
<!-- Created with Inkscape (http://www.inkscape.org/) -->

<svg
   version="1.1"
   id="svg2"
   xml:space="preserve"
   width="32"
   height="32"
   viewBox="0 0 32 32"
   sodipodi:docname="githubcircle.svg"
   inkscape:version="1.2 (dc2aedaf03, 2022-05-15)"
   xmlns:inkscape="http://www.inkscape.org/namespaces/inkscape"
   xmlns:sodipodi="http://sodipodi.sourceforge.net/DTD/sodipodi-0.dtd"
   xmlns="http://www.w3.org/2000/svg"
   xmlns:svg="http://www.w3.org/2000/svg"><defs
     id="defs6"><inkscape:path-effect
       effect="spiro"
       id="path-effect10953"
       is_visible="true"
       lpeversion="1" /><clipPath
       clipPathUnits="userSpaceOnUse"
       id="clipPath18"><path
         d="M 0,551.986 H 530.973 V 0 H 0 Z"
         id="path16" /></clipPath></defs><sodipodi:namedview
     id="namedview4"
     pagecolor="#ffffff"
     bordercolor="#666666"
     borderopacity="1.0"
     inkscape:pageshadow="2"
     inkscape:pageopacity="0.0"
     inkscape:pagecheckerboard="0"
     showgrid="true"
     width="50px"
     inkscape:snap-grids="false"
     inkscape:zoom="6.2903042"
     inkscape:cx="-17.725693"
     inkscape:cy="15.97697"
     inkscape:window-width="1920"
     inkscape:window-height="1005"
     inkscape:window-x="0"
     inkscape:window-y="0"
     inkscape:window-maximized="1"
     inkscape:showpageshadow="2"
     inkscape:deskcolor="#d1d1d1"
     showguides="true"
     inkscape:current-layer="svg2"><inkscape:grid
       type="xygrid"
       id="grid3366"
       originx="0"
       originy="0" /><sodipodi:guide
       position="16,23"
       orientation="-1,0"
       id="guide1805"
       inkscape:locked="false"
       inkscape:label=""
       inkscape:color="rgb(0,134,229)" /></sodipodi:namedview><path
     id="path1797"
     style="color:#000000;fill:#000000;stroke-width:1.33333;stroke-linecap:round;stroke-linejoin:round;paint-order:fill markers stroke"
     d="m 23.565267,5.2035762 a 0.75028163,0.75028163 0 0 0 -0.164062,0.00195 c 0.006,-6.666e-4 -0.100453,-0.004 -0.277344,0.033203 -0.699597,0.1474666 -1.769256,0.5469277 -3.267578,1.5625005 -0.01396,0.0093 -0.03106,0.01417 -0.04687,0.0098 a 0.75028163,0.75028163 0 0 1 -0.002,0 C 18.556859,6.4639985 17.216886,6.2903211 15.887533,6.2836544 a 0.75028163,0.75028163 0 0 0 -0.0059,0 c -1.334271,0.00533 -2.67446,0.1796108 -3.925782,0.5273436 -0.01649,0.004 -0.03324,-8.62e-4 -0.04687,-0.0098 C 10.041049,5.5358871 8.9217471,5.2845595 8.3269863,5.2348262 A 0.75028163,0.75028163 0 0 0 7.5437832,5.777795 c -0.2461051,0.8826391 -0.296025,1.662746 -0.265625,2.261719 0.0304,0.598973 0.1092666,0.964327 0.2265625,1.251953 0.00867,0.02133 0.00569,0.03971 -0.00977,0.05664 h 0.00195 c -0.993619,1.086105 -1.6074219,2.493286 -1.6074219,4.191405 0,2.99765 0.9247274,4.840178 2.2558594,5.960937 1.3477569,1.134772 3.1199418,1.567105 4.8671868,1.765625 0.05275,0.0067 0.0382,0.01199 0.04687,0.03906 0.0087,0.02773 0.02435,0.02184 -0.01563,0.05664 a 0.75028163,0.75028163 0 0 1 -0.002,0 c -0.443921,0.38784 -0.838336,1.060701 -0.980469,2.066407 -0.64003,-0.0788 -1.648142,-0.168038 -2.8828119,-0.148438 C 9.032954,23.11966 8.7830854,22.826609 8.1922207,22.326622 7.4593921,21.706516 6.4800123,20.996204 5.3484707,20.68795 a 0.74999998,0.74999998 0 0 0 -0.921875,0.527344 0.74999998,0.74999998 0 0 0 0.5273437,0.921875 c 0.7550419,0.205693 1.6240399,0.789725 2.2695313,1.335938 0.6454887,0.546199 1.0625,1.023437 1.0625,1.023437 a 0.75007498,0.75007498 0 0 0 0.6035156,0.253906 c 1.6310437,-0.08173 2.6519717,0.05507 3.1406247,0.148438 -0.0045,0.342145 -0.0085,0.6879 -0.01758,0.933593 a 0.75028163,0.75028163 0 0 0 0,0.03516 c 0.0053,0.899198 0.01241,1.344928 0.01758,1.832031 h 1.498047 c -0.0049,-0.484027 -0.01027,-0.935881 -0.01563,-1.810547 1.08e-4,-0.0027 -1.08e-4,-0.009 0,-0.01172 v -0.02148 c 0.02259,-0.644692 0.02472,-1.63541 0.04102,-2.228516 0.10332,-0.691733 0.365502,-1.039431 0.474609,-1.134765 0.487701,-0.425373 0.631444,-1.095573 0.462891,-1.636719 -0.168555,-0.541145 -0.665612,-1.008831 -1.308594,-1.082031 -1.608707,-0.182787 -3.086215,-0.593303 -4.0703124,-1.421875 -1.000719,-0.842573 -1.7226563,-2.10309 -1.7226563,-4.8125 0,-1.355879 0.4346339,-2.324909 1.2148438,-3.177734 0.4037996,-0.442213 0.517162,-1.084205 0.2910156,-1.638671 0.0164,0.04027 -0.094161,-0.308 -0.1171875,-0.761719 -0.01186,-0.23385 0.075975,-0.607703 0.109375,-0.917969 0.4524929,0.09693 0.8671239,0.110934 2.1796868,1 a 0.75028163,0.75028163 0 0 0 0.002,0.0039 c 0.377493,0.255267 0.848487,0.328631 1.287109,0.207032 1.107805,-0.30784 2.323411,-0.46537 3.53125,-0.470704 1.201587,0.0067 2.411739,0.163877 3.517578,0.470704 0.440596,0.123466 0.914713,0.04546 1.292969,-0.210938 C 21.788899,7.304087 22.35856,7.145373 22.87,6.984826 c 0.03945,0.331267 0.129853,0.722031 0.117187,0.96875 -0.02348,0.457013 -0.134946,0.803532 -0.121093,0.769532 -0.226178,0.554479 -0.110812,1.196459 0.292968,1.638671 0.780043,0.850999 1.210938,1.819282 1.210938,3.177734 0,2.71761 -0.721388,3.974248 -1.722656,4.8125 -0.984773,0.824426 -2.464088,1.230703 -4.080079,1.410156 v -0.002 c -0.646446,0.0716 -1.146417,0.544184 -1.314453,1.087891 -0.168036,0.543706 -0.02263,1.214832 0.470703,1.638671 0.13216,0.1136 0.529297,0.62285 0.529297,1.736329 0,1.685691 -0.0142,2.713104 -0.01953,3.474609 l -4.705078,0.002 h 6.207031 c 0.0054,-0.749977 0.01758,-1.782841 0.01758,-3.476562 0,-1.457253 -0.489306,-2.392201 -1.050781,-2.875 -0.0408,-0.03507 -0.02625,-0.02864 -0.01758,-0.05664 0.0087,-0.0284 -0.0065,-0.03372 0.04687,-0.03906 1.753658,-0.194745 3.530813,-0.621714 4.880859,-1.751953 1.333546,-1.116412 2.257813,-2.95566 2.257813,-5.960937 0,-1.698505 -0.610216,-3.105607 -1.605469,-4.191405 -0.01547,-0.01707 -0.0185,-0.03531 -0.0098,-0.05664 0.11492,-0.281866 0.201302,-0.65426 0.232422,-1.259766 0.03112,-0.605492 -0.02136,-1.3933367 -0.277343,-2.2871091 l 0.002,0.015625 A 0.75028163,0.75028163 0 0 0 23.565267,5.2035762 Z" /><circle
     style="opacity:1;fill:none;stroke:#000000;stroke-width:1.5;stroke-dasharray:none;stroke-opacity:1"
     id="path954"
     cx="16"
     cy="16"
     r="15.250001" /></svg>
